<?xml version="1.0" standalone="no"?>
<!DOCTYPE svg PUBLIC "-//W3C//DTD SVG 20010904//EN"
 "http://www.w3.org/TR/2001/REC-SVG-20010904/DTD/svg10.dtd">
<svg version="1.0" xmlns="http://www.w3.org/2000/svg"
 width="700.000000pt" height="700.000000pt" viewBox="0 0 700.000000 700.000000"
 preserveAspectRatio="xMidYMid meet">
<metadata>
Created by potrace 1.11, written by Peter Selinger 2001-2013
</metadata>
<g transform="translate(0.000000,700.000000) scale(0.100000,-0.100000)"
fill="#000000" stroke="none">
<path d="M2269 5986 c-2 -2 -35 -7 -74 -11 -56 -5 -233 -36 -280 -49 -206 -56
-409 -140 -554 -227 -34 -22 -65 -39 -68 -39 -10 0 -230 -161 -269 -197 -22
-21 -56 -52 -75 -69 -218 -200 -423 -503 -537 -794 -55 -143 -86 -257 -127
-468 -2 -13 -7 -62 -11 -110 -4 -48 -8 -94 -10 -102 -1 -8 -3 -18 -3 -21 -1
-4 -14 -12 -31 -19 -44 -18 -113 -90 -140 -146 -18 -38 -23 -65 -23 -124 0
-88 23 -147 77 -208 l36 -39 -22 -19 c-37 -33 -106 -148 -129 -215 -27 -79
-33 -215 -13 -300 23 -100 71 -185 143 -258 36 -36 74 -71 85 -76 17 -10 18
-31 21 -390 2 -352 3 -386 23 -461 43 -160 116 -286 230 -397 124 -119 256
-188 432 -225 19 -4 1169 -7 2555 -7 l2520 0 84 22 c151 41 278 113 384 220
66 66 151 189 168 242 6 20 15 41 19 46 5 6 18 48 31 95 21 80 22 107 24 464
2 360 3 379 21 389 10 5 48 40 84 76 110 113 162 248 156 405 -6 134 -48 244
-130 341 l-45 52 26 24 c113 105 122 295 18 417 -15 18 -51 46 -78 62 -44 25
-51 33 -53 62 -1 31 -12 133 -19 188 -26 210 -118 493 -225 695 -109 207 -232
371 -406 540 -150 147 -133 132 -239 211 -164 121 -405 248 -590 309 -59 20
-176 53 -205 59 -14 2 -50 10 -80 16 -58 12 -84 15 -195 29 -66 9 -2498 15
-2506 7z"/>
</g>
</svg>
